{"title":"TRON 20th Anniversary Collectors Edition DVDrip","uid":6052394,"size":1582974574,"categoryP":"video","categoryS":"movies","magnet":"?xt=urn:btih:dc09cf851c3fb76e54a107f4ff50611237b7fc08&amp;dn=TRON+20th+Anniversary+Collectors+Edition+DVDrip&amp;tr=udp%3A%2F%2Ftracker.openbittorrent.com%3A80&amp;tr=udp%3A%2F%2Fopen.demonii.com%3A1337&amp;tr=udp%3A%2F%2Ftracker.coppersurfer.tk%3A6969&amp;tr=udp%3A%2F%2Fexodus.desync.com%3A6969","seeders":0,"leechers":1,"uploader":"Beebe85","files":-1,"time":1292786708,"description":"Tron 20th Anniversary Edition DVD rip (1982)\n\n\n &lt;a href=&quot;\nhttp://www.imdb.com/title/tt0084827/&quot; rel=&quot;nofollow&quot; target=&quot;_NEW&quot;&gt;\nhttp://www.imdb.com/title/tt0084827/&lt;/a&gt;\n\n\n\n20th Anniversary Collectors Edition DVDrip\\TRON.Title1.avi\n\nFormat                           : AVI\nFormat/Info                      : Audio Video Interleave\nFormat profile                   : OpenDML\nFile size                        : 1.47 GiB\nDuration                         : 1h 35mn\nOverall bit rate                 : 2 194 Kbps\nMovie name                       : TRON.Title1.DVDRip\nWriting application              : Lavf52.78.4\nOriginal source form/Name        : TRON\n\nVideo\nID                               : 0\nFormat                           : AVC\nFormat/Info                      : Advanced Video Codec\nCodec ID                         : H264\nDuration                         : 1h 35mn\nBit rate                         : 1 733 Kbps\nWidth                            : 720 pixels\nHeight                           : 328 pixels\nDisplay aspect ratio             : 2.2:1\nFrame rate                       : 29.970 fps\nColor space                      : YUV\nChroma subsampling               : 4:2:0\nBits/(Pixel*Frame)               : 0.245\nStream size                      : 1.16 GiB (79%)\n\nAudio\nID                               : 1\nFormat                           : AC-3\nFormat/Info                      : Audio Coding 3\nMode extension                   : CM (complete main)\nCodec ID                         : 2000\nDuration                         : 1h 35mn\nBit rate mode                    : Constant\nBit rate                         : 448 Kbps\nChannel(s)                       : 6 channels\nChannel positions                : Front: L C R, Side: L R, LFE\nSampling rate                    : 48.0 KHz\nBit depth                        : 16 bits\nStream size                      : 307 MiB (20%)\nAlignment                        : Aligned on interleaves\nInterleave, duration             : 32 ms (0.96 video frame)\nInterleave, preload duration     : 32 ms\n\n","torrent":{"xt":"urn:btih:dc09cf851c3fb76e54a107f4ff50611237b7fc08","amp;dn":"TRON+20th+Anniversary+Collectors+Edition+DVDrip","amp;tr":["udp%3A%2F%2Ftracker.openbittorrent.com%3A80","udp%3A%2F%2Fopen.demonii.com%3A1337","udp%3A%2F%2Ftracker.coppersurfer.tk%3A6969","udp%3A%2F%2Fexodus.desync.com%3A6969"],"infoHash":"dc09cf851c3fb76e54a107f4ff50611237b7fc08","infoHashBuffer":{"type":"Buffer","data":[220,9,207,133,28,63,183,110,84,161,7,244,255,80,97,18,55,183,252,8]},"announce":[],"urlList":[]}}